<svg xmlns="http://www.w3.org/2000/svg" viewBox="0 0 980 540" font-family="ui-sans-serif, system-ui, sans-serif" font-size="12">
<rect width="980" height="540" fill="#fdfdfb"/>
<text x="490.0" y="30" text-anchor="middle" font-size="18" font-weight="600" fill="#222">Memory scaling: goroutine stacks vs. real TCP connections</text>
<text x="490.0" y="50" text-anchor="middle" font-size="12" fill="#666">Server memory (MiB) on a 16 GiB laptop, Go 1.16. Log x-axis.</text>
<line x1="80" y1="450.0" x2="940" y2="450.0" stroke="#bbb" stroke-width="1"/>
<text x="72" y="454.0" text-anchor="end" fill="#666">0</text>
<line x1="80" y1="402.5" x2="940" y2="402.5" stroke="#e2e2e2" stroke-width="1"/>
<line x1="80" y1="355.0" x2="940" y2="355.0" stroke="#bbb" stroke-width="1"/>
<text x="72" y="359.0" text-anchor="end" fill="#666">1,000</text>
<line x1="80" y1="307.5" x2="940" y2="307.5" stroke="#e2e2e2" stroke-width="1"/>
<line x1="80" y1="260.0" x2="940" y2="260.0" stroke="#bbb" stroke-width="1"/>
<text x="72" y="264.0" text-anchor="end" fill="#666">2,000</text>
<line x1="80" y1="212.5" x2="940" y2="212.5" stroke="#e2e2e2" stroke-width="1"/>
<line x1="80" y1="165.0" x2="940" y2="165.0" stroke="#bbb" stroke-width="1"/>
<text x="72" y="169.0" text-anchor="end" fill="#666">3,000</text>
<line x1="80" y1="117.5" x2="940" y2="117.5" stroke="#e2e2e2" stroke-width="1"/>
<line x1="80" y1="70.0" x2="940" y2="70.0" stroke="#bbb" stroke-width="1"/>
<text x="72" y="74.0" text-anchor="end" fill="#666">4,000</text>
<line x1="80.0" y1="70" x2="80.0" y2="450" stroke="#bbb" stroke-width="1"/>
<text x="80.0" y="468.0" text-anchor="middle" fill="#444" font-size="12" font-weight="600">10k</text>
<line x1="209.4" y1="70" x2="209.4" y2="450" stroke="#eee" stroke-width="1"/>
<line x1="285.2" y1="70" x2="285.2" y2="450" stroke="#eee" stroke-width="1"/>
<line x1="338.9" y1="70" x2="338.9" y2="450" stroke="#eee" stroke-width="1"/>
<line x1="380.6" y1="70" x2="380.6" y2="450" stroke="#eee" stroke-width="1"/>
<line x1="414.6" y1="70" x2="414.6" y2="450" stroke="#eee" stroke-width="1"/>
<line x1="443.4" y1="70" x2="443.4" y2="450" stroke="#eee" stroke-width="1"/>
<line x1="468.3" y1="70" x2="468.3" y2="450" stroke="#eee" stroke-width="1"/>
<line x1="490.3" y1="70" x2="490.3" y2="450" stroke="#eee" stroke-width="1"/>
<line x1="510.0" y1="70" x2="510.0" y2="450" stroke="#bbb" stroke-width="1"/>
<text x="510.0" y="468.0" text-anchor="middle" fill="#444" font-size="12" font-weight="600">100k</text>
<line x1="639.4" y1="70" x2="639.4" y2="450" stroke="#eee" stroke-width="1"/>
<line x1="715.2" y1="70" x2="715.2" y2="450" stroke="#eee" stroke-width="1"/>
<line x1="768.9" y1="70" x2="768.9" y2="450" stroke="#eee" stroke-width="1"/>
<line x1="810.6" y1="70" x2="810.6" y2="450" stroke="#eee" stroke-width="1"/>
<line x1="844.6" y1="70" x2="844.6" y2="450" stroke="#eee" stroke-width="1"/>
<line x1="873.4" y1="70" x2="873.4" y2="450" stroke="#eee" stroke-width="1"/>
<line x1="898.3" y1="70" x2="898.3" y2="450" stroke="#eee" stroke-width="1"/>
<line x1="920.3" y1="70" x2="920.3" y2="450" stroke="#eee" stroke-width="1"/>
<line x1="940.0" y1="70" x2="940.0" y2="450" stroke="#bbb" stroke-width="1"/>
<text x="940.0" y="468.0" text-anchor="middle" fill="#444" font-size="12" font-weight="600">1M</text>
<text x="22" y="260.0" text-anchor="middle" transform="rotate(-90, 22, 260.0)" fill="#444" font-size="13">Server memory (MiB)</text>
<text x="510.0" y="490" text-anchor="middle" fill="#444" font-size="13">Number of goroutines or connections (log scale)</text>
<polyline points="80.0,443.2 380.6,436.9 510.0,424.2 810.6,323.1 940.0,202.9" fill="none" stroke="#1f6feb" stroke-width="2.5" stroke-linejoin="round" stroke-linecap="round"/>
<circle cx="80.0" cy="443.2" r="4.5" fill="#1f6feb" stroke="white" stroke-width="1.5"/>
<circle cx="380.6" cy="436.9" r="4.5" fill="#1f6feb" stroke="white" stroke-width="1.5"/>
<circle cx="510.0" cy="424.2" r="4.5" fill="#1f6feb" stroke="white" stroke-width="1.5"/>
<circle cx="810.6" cy="323.1" r="4.5" fill="#1f6feb" stroke="white" stroke-width="1.5"/>
<circle cx="940.0" cy="202.9" r="4.5" fill="#1f6feb" stroke="white" stroke-width="1.5"/>
<text x="80.0" y="433.2" text-anchor="middle" font-size="11" fill="#1f4fa6">71</text>
<text x="380.6" y="426.9" text-anchor="middle" font-size="11" fill="#1f4fa6">138</text>
<text x="510.0" y="414.2" text-anchor="middle" font-size="11" fill="#1f4fa6">272</text>
<text x="810.6" y="313.1" text-anchor="middle" font-size="11" fill="#1f4fa6">1336</text>
<text x="940.0" y="192.9" text-anchor="middle" font-size="11" fill="#1f4fa6">2602</text>
<polyline points="80.0,446.3 235.5,442.1" fill="none" stroke="#c0392b" stroke-width="2.5" stroke-linejoin="round" stroke-linecap="round"/>
<circle cx="80.0" cy="446.3" r="4.5" fill="#c0392b" stroke="white" stroke-width="1.5"/>
<text x="88.0" y="450.3" text-anchor="start" font-size="11" fill="#8a2a1f">39</text>
<circle cx="235.5" cy="442.1" r="4.5" fill="#c0392b" stroke="white" stroke-width="1.5"/>
<text x="243.5" y="446.1" text-anchor="start" font-size="11" fill="#8a2a1f">83</text>
<polyline points="235.5,442.1 940.0,97.5" fill="none" stroke="#c0392b" stroke-width="2" stroke-linejoin="round" stroke-linecap="round" stroke-dasharray="6 5"/>
<circle cx="940.0" cy="97.5" r="5.5" fill="white" stroke="#c0392b" stroke-width="2"/>
<line x1="940.0" y1="97.5" x2="930.0" y2="79.5" stroke="#8a2a1f" stroke-width="1" stroke-dasharray="3 3"/>
<text x="926.0" y="75.5" text-anchor="end" font-size="11" fill="#8a2a1f" font-weight="600">extrapolated: ~3711 MiB</text>
<text x="926.0" y="89.5" text-anchor="end" font-size="11" fill="#8a2a1f">at 3.8 KiB/conn slope</text>
<rect x="86" y="70" width="290" height="56" rx="4" fill="white" stroke="#ddd"/>
<line x1="96" y1="84" x2="126" y2="84" stroke="#1f6feb" stroke-width="2.5"/>
<circle cx="111" cy="84" r="4.5" fill="#1f6feb" stroke="white" stroke-width="1.5"/>
<text x="136" y="88" fill="#222" font-size="12">Parked goroutines: runtime Sys (no sockets)</text>
<line x1="96" y1="106" x2="126" y2="106" stroke="#c0392b" stroke-width="2.5"/>
<circle cx="111" cy="106" r="4.5" fill="#c0392b" stroke="white" stroke-width="1.5"/>
<text x="136" y="110" fill="#222" font-size="12">Real TCP conns: server VmRSS (dashed = extrapolated)</text>
<text x="940" y="526" text-anchor="end" fill="#777" font-size="11">12-core laptop, 16 GiB RAM, Linux, Go 1.16</text>
</svg>