<svg xmlns="http://www.w3.org/2000/svg" viewBox="0 0 760 460" font-family="ui-sans-serif, system-ui, sans-serif" font-size="12">
<rect width="760" height="460" fill="#fdfdfb"/>
<text x="380.0" y="30" text-anchor="middle" font-size="18" font-weight="600" fill="#222">Throughput: naive vs BCE-hinted</text>
<text x="380.0" y="50" text-anchor="middle" font-size="12" fill="#666">GB/s on a 4 KiB []uint32, 15 runs, higher is better.</text>
<line x1="80" y1="370.0" x2="732" y2="370.0" stroke="#bbb" stroke-width="1"/>
<text x="72" y="374.0" text-anchor="end" fill="#666">0</text>
<line x1="80" y1="340.0" x2="732" y2="340.0" stroke="#ddd" stroke-width="1"/>
<line x1="80" y1="310.0" x2="732" y2="310.0" stroke="#bbb" stroke-width="1"/>
<text x="72" y="314.0" text-anchor="end" fill="#666">5</text>
<line x1="80" y1="280.0" x2="732" y2="280.0" stroke="#ddd" stroke-width="1"/>
<line x1="80" y1="250.0" x2="732" y2="250.0" stroke="#bbb" stroke-width="1"/>
<text x="72" y="254.0" text-anchor="end" fill="#666">10</text>
<line x1="80" y1="220.0" x2="732" y2="220.0" stroke="#ddd" stroke-width="1"/>
<line x1="80" y1="190.0" x2="732" y2="190.0" stroke="#bbb" stroke-width="1"/>
<text x="72" y="194.0" text-anchor="end" fill="#666">15</text>
<line x1="80" y1="160.0" x2="732" y2="160.0" stroke="#ddd" stroke-width="1"/>
<line x1="80" y1="130.0" x2="732" y2="130.0" stroke="#bbb" stroke-width="1"/>
<text x="72" y="134.0" text-anchor="end" fill="#666">20</text>
<line x1="80" y1="100.0" x2="732" y2="100.0" stroke="#ddd" stroke-width="1"/>
<line x1="80" y1="70.0" x2="732" y2="70.0" stroke="#bbb" stroke-width="1"/>
<text x="72" y="74.0" text-anchor="end" fill="#666">25</text>
<text x="22" y="220.0" text-anchor="middle" transform="rotate(-90, 22, 220.0)" fill="#444" font-size="13">GB / second</text>
<rect x="80.0" y="180.4" width="142.0" height="189.6" fill="#3b6db5" rx="2"/>
<text x="151.0" y="172.4" text-anchor="middle" fill="#222" font-size="12" font-weight="600">15.8</text>
<text x="151.0" y="386.0" text-anchor="middle" fill="#555" font-size="11">naive</text>
<rect x="234.0" y="139.6" width="142.0" height="230.4" fill="#1f9d55" rx="2"/>
<text x="305.0" y="131.6" text-anchor="middle" fill="#222" font-size="12" font-weight="600">19.2</text>
<text x="305.0" y="386.0" text-anchor="middle" fill="#555" font-size="11">hint</text>
<text x="228.0" y="408.0" text-anchor="middle" fill="#222" font-size="13" font-weight="600">SumNext</text>
<text x="228.0" y="428.0" text-anchor="middle" fill="#1f9d55" font-size="12" font-weight="700">+21.5%</text>
<rect x="436.0" y="146.8" width="142.0" height="223.2" fill="#3b6db5" rx="2"/>
<text x="507.0" y="138.8" text-anchor="middle" fill="#222" font-size="12" font-weight="600">18.6</text>
<text x="507.0" y="386.0" text-anchor="middle" fill="#555" font-size="11">naive</text>
<rect x="590.0" y="125.2" width="142.0" height="244.8" fill="#1f9d55" rx="2"/>
<text x="661.0" y="117.2" text-anchor="middle" fill="#222" font-size="12" font-weight="600">20.4</text>
<text x="661.0" y="386.0" text-anchor="middle" fill="#555" font-size="11">hint</text>
<text x="584.0" y="408.0" text-anchor="middle" fill="#222" font-size="13" font-weight="600">SumExternal</text>
<text x="584.0" y="428.0" text-anchor="middle" fill="#1f9d55" font-size="12" font-weight="700">+9.7%</text>
<rect x="80" y="428" width="12" height="12" fill="#3b6db5" rx="2"/>
<text x="98" y="438" fill="#444" font-size="12">naive (bounds check in loop)</text>
<rect x="300" y="428" width="12" height="12" fill="#1f9d55" rx="2"/>
<text x="318" y="438" fill="#444" font-size="12">hint (re-sliced, BCE wins)</text>
<text x="732" y="448" text-anchor="end" fill="#777" font-size="11">AMD Ryzen 5 9600X | Go 1.21.13 linux/amd64</text>
</svg>