<svg xmlns="http://www.w3.org/2000/svg" viewBox="0 0 760 320" font-family="ui-sans-serif, system-ui, sans-serif" font-size="11">
<rect width="760" height="320" fill="#fdfdfb"/>
<text x="70" y="22" font-size="13" font-weight="600" fill="#222">v13-pread-archsimd: throughput vs. goroutines</text>
<line x1="70" y1="264.0" x2="730" y2="264.0" stroke="#ddd"/>
<text x="64" y="267.5" text-anchor="end" fill="#666">0k</text>
<line x1="70" y1="222.5" x2="730" y2="222.5" stroke="#ddd"/>
<text x="64" y="226.0" text-anchor="end" fill="#666">10k</text>
<line x1="70" y1="181.1" x2="730" y2="181.1" stroke="#ddd"/>
<text x="64" y="184.6" text-anchor="end" fill="#666">20k</text>
<line x1="70" y1="139.6" x2="730" y2="139.6" stroke="#ddd"/>
<text x="64" y="143.1" text-anchor="end" fill="#666">30k</text>
<line x1="70" y1="98.2" x2="730" y2="98.2" stroke="#ddd"/>
<text x="64" y="101.7" text-anchor="end" fill="#666">40k</text>
<line x1="70" y1="56.7" x2="730" y2="56.7" stroke="#ddd"/>
<text x="64" y="60.2" text-anchor="end" fill="#666">50k</text>
<line x1="70.0" y1="264" x2="70.0" y2="268" stroke="#666"/>
<text x="70.0" y="280" text-anchor="middle" fill="#444">1</text>
<line x1="170.2" y1="264" x2="170.2" y2="268" stroke="#666"/>
<text x="170.2" y="280" text-anchor="middle" fill="#444">2</text>
<line x1="270.5" y1="264" x2="270.5" y2="268" stroke="#666"/>
<text x="270.5" y="280" text-anchor="middle" fill="#444">4</text>
<line x1="329.1" y1="264" x2="329.1" y2="268" stroke="#666"/>
<text x="329.1" y="280" text-anchor="middle" fill="#444">6</text>
<line x1="370.7" y1="264" x2="370.7" y2="268" stroke="#666"/>
<text x="370.7" y="280" text-anchor="middle" fill="#444">8</text>
<line x1="429.3" y1="264" x2="429.3" y2="268" stroke="#666"/>
<text x="429.3" y="280" text-anchor="middle" fill="#444">12</text>
<line x1="529.5" y1="264" x2="529.5" y2="268" stroke="#666"/>
<text x="529.5" y="280" text-anchor="middle" fill="#444">24</text>
<line x1="629.8" y1="264" x2="629.8" y2="268" stroke="#666"/>
<text x="629.8" y="280" text-anchor="middle" fill="#444">48</text>
<line x1="730.0" y1="264" x2="730.0" y2="268" stroke="#666"/>
<text x="730.0" y="280" text-anchor="middle" fill="#444">96</text>
<text x="400.0" y="302" text-anchor="middle" fill="#444" font-size="12">goroutines</text>
<line x1="329.1" y1="36" x2="329.1" y2="264" stroke="#aaa" stroke-dasharray="3 3"/>
<text x="333.1" y="48" fill="#888" font-size="10">6 cores</text>
<path d="M 70.0 191.7 L 170.2 141.5 L 270.5 93.4 L 329.1 78.1 L 370.7 66.1 L 429.3 66.2 L 529.5 70.8 L 629.8 74.1 L 730.0 89.5" fill="none" stroke="#7e3cc5" stroke-width="2.5"/>
<circle cx="70.0" cy="191.7" r="3.5" fill="#7e3cc5"/>
<circle cx="170.2" cy="141.5" r="3.5" fill="#7e3cc5"/>
<circle cx="270.5" cy="93.4" r="3.5" fill="#7e3cc5"/>
<circle cx="329.1" cy="78.1" r="3.5" fill="#7e3cc5"/>
<circle cx="370.7" cy="66.1" r="3.5" fill="#7e3cc5"/>
<circle cx="429.3" cy="66.2" r="3.5" fill="#7e3cc5"/>
<circle cx="529.5" cy="70.8" r="3.5" fill="#7e3cc5"/>
<circle cx="629.8" cy="74.1" r="3.5" fill="#7e3cc5"/>
<circle cx="730.0" cy="89.5" r="3.5" fill="#7e3cc5"/>
<circle cx="370.7" cy="66.1" r="5.5" fill="none" stroke="#7e3cc5" stroke-width="2"/>
<text x="370.7" y="56.1" text-anchor="middle" fill="#7e3cc5" font-weight="600">peak 47,750</text>
</svg>