<svg xmlns="http://www.w3.org/2000/svg" viewBox="0 0 980 540" font-family="ui-sans-serif, system-ui, sans-serif" font-size="12">
<rect width="980" height="540" fill="#fdfdfb"/>
<text x="490.0" y="28" text-anchor="middle" font-size="18" font-weight="600" fill="#222">Throughput by variant (warm cache, 4 GiB)</text>
<text x="490.0" y="46" text-anchor="middle" font-size="12" fill="#666">MB/s, trimmed mean of 5 runs. Higher is better.</text>
<line x1="70" y1="430.0" x2="956" y2="430.0" stroke="#bbb" stroke-width="1"/>
<text x="64" y="434.0" text-anchor="end" fill="#666">0</text>
<line x1="70" y1="396.4" x2="956" y2="396.4" stroke="#ddd" stroke-width="1"/>
<line x1="70" y1="362.7" x2="956" y2="362.7" stroke="#bbb" stroke-width="1"/>
<text x="64" y="366.7" text-anchor="end" fill="#666">10,000</text>
<line x1="70" y1="329.1" x2="956" y2="329.1" stroke="#ddd" stroke-width="1"/>
<line x1="70" y1="295.5" x2="956" y2="295.5" stroke="#bbb" stroke-width="1"/>
<text x="64" y="299.5" text-anchor="end" fill="#666">20,000</text>
<line x1="70" y1="261.8" x2="956" y2="261.8" stroke="#ddd" stroke-width="1"/>
<line x1="70" y1="228.2" x2="956" y2="228.2" stroke="#bbb" stroke-width="1"/>
<text x="64" y="232.2" text-anchor="end" fill="#666">30,000</text>
<line x1="70" y1="194.5" x2="956" y2="194.5" stroke="#ddd" stroke-width="1"/>
<line x1="70" y1="160.9" x2="956" y2="160.9" stroke="#bbb" stroke-width="1"/>
<text x="64" y="164.9" text-anchor="end" fill="#666">40,000</text>
<line x1="70" y1="127.3" x2="956" y2="127.3" stroke="#ddd" stroke-width="1"/>
<line x1="70" y1="93.6" x2="956" y2="93.6" stroke="#bbb" stroke-width="1"/>
<text x="64" y="97.6" text-anchor="end" fill="#666">50,000</text>
<line x1="70" y1="60.0" x2="956" y2="60.0" stroke="#ddd" stroke-width="1"/>
<text x="20" y="245.0" text-anchor="middle" transform="rotate(-90, 20, 245.0)" fill="#444" font-size="13">MB / second</text>
<rect x="70.0" y="425.0" width="58.9" height="5.0" fill="#3b6db5" rx="2"/>
<text x="99.5" y="419.0" text-anchor="middle" fill="#222" font-size="11" font-weight="500">749</text>
<text x="99.5" y="444.0" text-anchor="middle" fill="#222" font-size="12" font-weight="600">v1</text>
<text x="99.5" y="458.0" text-anchor="end" fill="#555" font-size="11" transform="rotate(-35, 99.5, 458.0)">os.ReadFile</text>
<rect x="138.9" y="424.9" width="58.9" height="5.1" fill="#3b6db5" rx="2"/>
<text x="168.4" y="418.9" text-anchor="middle" fill="#222" font-size="11" font-weight="500">755</text>
<text x="168.4" y="444.0" text-anchor="middle" fill="#222" font-size="12" font-weight="600">v2</text>
<text x="168.4" y="458.0" text-anchor="end" fill="#555" font-size="11" transform="rotate(-35, 168.4, 458.0)">bufio.ReadByte</text>
<rect x="207.8" y="338.0" width="58.9" height="92.0" fill="#3b6db5" rx="2"/>
<text x="237.3" y="332.0" text-anchor="middle" fill="#222" font-size="11" font-weight="500">13,673</text>
<text x="237.3" y="444.0" text-anchor="middle" fill="#222" font-size="12" font-weight="600">v3</text>
<text x="237.3" y="458.0" text-anchor="end" fill="#555" font-size="11" transform="rotate(-35, 237.3, 458.0)">chunked uint64</text>
<rect x="276.8" y="341.0" width="58.9" height="89.0" fill="#3b6db5" rx="2"/>
<text x="306.2" y="335.0" text-anchor="middle" fill="#222" font-size="11" font-weight="500">13,233</text>
<text x="306.2" y="444.0" text-anchor="middle" fill="#222" font-size="12" font-weight="600">v4</text>
<text x="306.2" y="458.0" text-anchor="end" fill="#555" font-size="11" transform="rotate(-35, 306.2, 458.0)">mmap</text>
<rect x="345.7" y="340.9" width="58.9" height="89.1" fill="#3b6db5" rx="2"/>
<text x="375.2" y="334.9" text-anchor="middle" fill="#222" font-size="11" font-weight="500">13,248</text>
<text x="375.2" y="444.0" text-anchor="middle" fill="#222" font-size="12" font-weight="600">v5</text>
<text x="375.2" y="458.0" text-anchor="end" fill="#555" font-size="11" transform="rotate(-35, 375.2, 458.0)">mmap + madvise</text>
<rect x="414.6" y="236.2" width="58.9" height="193.8" fill="#3b6db5" rx="2"/>
<text x="444.1" y="230.2" text-anchor="middle" fill="#222" font-size="11" font-weight="500">28,806</text>
<text x="444.1" y="444.0" text-anchor="middle" fill="#222" font-size="12" font-weight="600">v6</text>
<text x="444.1" y="458.0" text-anchor="end" fill="#555" font-size="11" transform="rotate(-35, 444.1, 458.0)">mmap parallel</text>
<rect x="483.5" y="124.3" width="58.9" height="305.7" fill="#3b6db5" rx="2"/>
<text x="513.0" y="118.3" text-anchor="middle" fill="#222" font-size="11" font-weight="500">45,441</text>
<text x="513.0" y="444.0" text-anchor="middle" fill="#222" font-size="12" font-weight="600">v7</text>
<text x="513.0" y="458.0" text-anchor="end" fill="#555" font-size="11" transform="rotate(-35, 513.0, 458.0)">pread parallel</text>
<rect x="552.5" y="332.0" width="58.9" height="98.0" fill="#3b6db5" rx="2"/>
<text x="581.9" y="326.0" text-anchor="middle" fill="#222" font-size="11" font-weight="500">14,566</text>
<text x="581.9" y="444.0" text-anchor="middle" fill="#222" font-size="12" font-weight="600">v8</text>
<text x="581.9" y="458.0" text-anchor="end" fill="#555" font-size="11" transform="rotate(-35, 581.9, 458.0)">AVX2 asm (1t)</text>
<rect x="621.4" y="230.0" width="58.9" height="200.0" fill="#3b6db5" rx="2"/>
<text x="650.8" y="224.0" text-anchor="middle" fill="#222" font-size="11" font-weight="500">29,723</text>
<text x="650.8" y="444.0" text-anchor="middle" fill="#222" font-size="12" font-weight="600">v9</text>
<text x="650.8" y="458.0" text-anchor="end" fill="#555" font-size="11" transform="rotate(-35, 650.8, 458.0)">mmap par + AVX2</text>
<rect x="690.3" y="306.8" width="58.9" height="123.2" fill="#3b6db5" rx="2"/>
<text x="719.8" y="300.8" text-anchor="middle" fill="#222" font-size="11" font-weight="500">18,318</text>
<text x="719.8" y="444.0" text-anchor="middle" fill="#222" font-size="12" font-weight="600">v10</text>
<text x="719.8" y="458.0" text-anchor="end" fill="#555" font-size="11" transform="rotate(-35, 719.8, 458.0)">MAP_POPULATE + AVX2</text>
<rect x="759.2" y="103.0" width="58.9" height="327.0" fill="#3b6db5" rx="2"/>
<text x="788.7" y="97.0" text-anchor="middle" fill="#222" font-size="11" font-weight="500">48,602</text>
<text x="788.7" y="444.0" text-anchor="middle" fill="#222" font-size="12" font-weight="600">v11</text>
<text x="788.7" y="458.0" text-anchor="end" fill="#555" font-size="11" transform="rotate(-35, 788.7, 458.0)">pread par + AVX2 asm</text>
<rect x="828.2" y="324.9" width="58.9" height="105.1" fill="#3b6db5" rx="2"/>
<text x="857.6" y="318.9" text-anchor="middle" fill="#222" font-size="11" font-weight="500">15,629</text>
<text x="857.6" y="444.0" text-anchor="middle" fill="#222" font-size="12" font-weight="600">v12</text>
<text x="857.6" y="458.0" text-anchor="end" fill="#555" font-size="11" transform="rotate(-35, 857.6, 458.0)">archsimd AVX-512 (1t)</text>
<rect x="897.1" y="98.7" width="58.9" height="331.3" fill="#1f9d55" rx="2"/>
<text x="926.5" y="92.7" text-anchor="middle" fill="#222" font-size="11" font-weight="600">49,251</text>
<text x="926.5" y="444.0" text-anchor="middle" fill="#222" font-size="12" font-weight="600">v13</text>
<text x="926.5" y="458.0" text-anchor="end" fill="#555" font-size="11" transform="rotate(-35, 926.5, 458.0)">pread par + archsimd</text>
<text x="926.5" y="76.7" text-anchor="middle" fill="#1f9d55" font-size="11" font-weight="700">winner</text>
<text x="956" y="528" text-anchor="end" fill="#777" font-size="11">AMD Ryzen 5 9600X | Go 1.26 | Linux 6.6 (WSL2) | DDR5</text>
</svg>