<svg xmlns="http://www.w3.org/2000/svg" viewBox="0 0 920 460" font-family="ui-sans-serif, system-ui, sans-serif" font-size="12">
<rect width="920" height="460" fill="#fdfdfb"/>
<text x="460.0" y="22" text-anchor="middle" font-size="17" font-weight="700" fill="#222">Killing one interface{} escape in a hot loop</text>
<text x="220.0" y="36" text-anchor="middle" font-size="15" font-weight="600" fill="#222">Time per Put</text>
<text x="220.0" y="54" text-anchor="middle" font-size="11" fill="#666">ns/op, benchstat over 10 runs (lower is better)</text>
<line x1="70.0" y1="370.0" x2="416.0" y2="370.0" stroke="#bbb" stroke-width="1"/>
<text x="62.0" y="374.0" text-anchor="end" fill="#666" font-size="11">0</text>
<line x1="70.0" y1="327.1" x2="416.0" y2="327.1" stroke="#e2e2e2" stroke-width="1"/>
<text x="62.0" y="331.1" text-anchor="end" fill="#666" font-size="11">2.00 ns</text>
<line x1="70.0" y1="284.3" x2="416.0" y2="284.3" stroke="#e2e2e2" stroke-width="1"/>
<text x="62.0" y="288.3" text-anchor="end" fill="#666" font-size="11">4.00 ns</text>
<line x1="70.0" y1="241.4" x2="416.0" y2="241.4" stroke="#e2e2e2" stroke-width="1"/>
<text x="62.0" y="245.4" text-anchor="end" fill="#666" font-size="11">6.00 ns</text>
<line x1="70.0" y1="198.6" x2="416.0" y2="198.6" stroke="#e2e2e2" stroke-width="1"/>
<text x="62.0" y="202.6" text-anchor="end" fill="#666" font-size="11">8.00 ns</text>
<line x1="70.0" y1="155.7" x2="416.0" y2="155.7" stroke="#e2e2e2" stroke-width="1"/>
<text x="62.0" y="159.7" text-anchor="end" fill="#666" font-size="11">10.0 ns</text>
<line x1="70.0" y1="112.9" x2="416.0" y2="112.9" stroke="#e2e2e2" stroke-width="1"/>
<text x="62.0" y="116.9" text-anchor="end" fill="#666" font-size="11">12.0 ns</text>
<line x1="70.0" y1="70.0" x2="416.0" y2="70.0" stroke="#e2e2e2" stroke-width="1"/>
<text x="62.0" y="74.0" text-anchor="end" fill="#666" font-size="11">14.0 ns</text>
<rect x="70.0" y="127.9" width="153.0" height="242.1" fill="#b94a4a" rx="2"/>
<text x="146.5" y="119.9" text-anchor="middle" fill="#222" font-size="12" font-weight="600">11.3 ns</text>
<text x="146.5" y="388.0" text-anchor="middle" fill="#333" font-size="12">interface{} sink</text>
<rect x="263.0" y="347.1" width="153.0" height="22.9" fill="#1f9d55" rx="2"/>
<text x="339.5" y="339.1" text-anchor="middle" fill="#222" font-size="12" font-weight="600">1.07 ns</text>
<text x="339.5" y="388.0" text-anchor="middle" fill="#333" font-size="12">concrete sink</text>
<text x="700.0" y="36" text-anchor="middle" font-size="15" font-weight="600" fill="#222">Allocations per Put</text>
<text x="700.0" y="54" text-anchor="middle" font-size="11" fill="#666">allocs/op, with bytes/op annotated</text>
<line x1="550.0" y1="370.0" x2="896.0" y2="370.0" stroke="#bbb" stroke-width="1"/>
<text x="542.0" y="374.0" text-anchor="end" fill="#666" font-size="11">0</text>
<line x1="550.0" y1="310.0" x2="896.0" y2="310.0" stroke="#e2e2e2" stroke-width="1"/>
<text x="542.0" y="314.0" text-anchor="end" fill="#666" font-size="11">0.2</text>
<line x1="550.0" y1="250.0" x2="896.0" y2="250.0" stroke="#e2e2e2" stroke-width="1"/>
<text x="542.0" y="254.0" text-anchor="end" fill="#666" font-size="11">0.5</text>
<line x1="550.0" y1="190.0" x2="896.0" y2="190.0" stroke="#e2e2e2" stroke-width="1"/>
<text x="542.0" y="194.0" text-anchor="end" fill="#666" font-size="11">0.8</text>
<line x1="550.0" y1="130.0" x2="896.0" y2="130.0" stroke="#e2e2e2" stroke-width="1"/>
<text x="542.0" y="134.0" text-anchor="end" fill="#666" font-size="11">1</text>
<line x1="550.0" y1="70.0" x2="896.0" y2="70.0" stroke="#e2e2e2" stroke-width="1"/>
<text x="542.0" y="74.0" text-anchor="end" fill="#666" font-size="11">1.2</text>
<rect x="550.0" y="130.0" width="153.0" height="240.0" fill="#b94a4a" rx="2"/>
<text x="626.5" y="122.0" text-anchor="middle" fill="#222" font-size="12" font-weight="600">1</text>
<text x="626.5" y="388.0" text-anchor="middle" fill="#333" font-size="12">interface{} sink</text>
<rect x="743.0" y="368.0" width="153.0" height="2" fill="#1f9d55" rx="1"/>
<text x="819.5" y="360.0" text-anchor="middle" fill="#222" font-size="12" font-weight="600">0</text>
<text x="819.5" y="388.0" text-anchor="middle" fill="#333" font-size="12">concrete sink</text>
<text x="626.5" y="146.0" text-anchor="middle" fill="#fff" font-size="11" font-weight="600">16 B/op</text>
<text x="819.5" y="406.0" text-anchor="middle" fill="#1f9d55" font-size="11" font-weight="600">0 B/op</text>
<text x="220.0" y="420.0" text-anchor="middle" fill="#1f9d55" font-size="12" font-weight="700">about 10.6x faster</text>
<text x="904" y="448" text-anchor="end" fill="#777" font-size="11">Go 1.18 | AMD Ryzen 5 9600X | benchstat n=10</text>
</svg>