<svg xmlns="http://www.w3.org/2000/svg" viewBox="0 0 980 540" font-family="ui-sans-serif, system-ui, sans-serif" font-size="12">
<rect width="980" height="540" fill="#fdfdfb"/>
<text x="490.0" y="30" text-anchor="middle" font-size="18" font-weight="600" fill="#222">Top syscalls before vs after the fix</text>
<text x="490.0" y="50" text-anchor="middle" font-size="12" fill="#666">30,600 files, warm cache. Counts from strace -cf. Log scale.</text>
<line x1="84" y1="430.0" x2="956" y2="430.0" stroke="#bbb" stroke-width="1"/>
<text x="76" y="434.0" text-anchor="end" fill="#666">1</text>
<line x1="84" y1="370.3" x2="956" y2="370.3" stroke="#ddd" stroke-width="1"/>
<text x="76" y="374.3" text-anchor="end" fill="#666">10</text>
<line x1="84" y1="310.7" x2="956" y2="310.7" stroke="#bbb" stroke-width="1"/>
<text x="76" y="314.7" text-anchor="end" fill="#666">100</text>
<line x1="84" y1="251.0" x2="956" y2="251.0" stroke="#ddd" stroke-width="1"/>
<text x="76" y="255.0" text-anchor="end" fill="#666">1,000</text>
<line x1="84" y1="191.3" x2="956" y2="191.3" stroke="#bbb" stroke-width="1"/>
<text x="76" y="195.3" text-anchor="end" fill="#666">10,000</text>
<line x1="84" y1="131.7" x2="956" y2="131.7" stroke="#ddd" stroke-width="1"/>
<text x="76" y="135.7" text-anchor="end" fill="#666">100,000</text>
<line x1="84" y1="72.0" x2="956" y2="72.0" stroke="#bbb" stroke-width="1"/>
<text x="76" y="76.0" text-anchor="end" fill="#666">1,000,000</text>
<text x="22" y="251.0" text-anchor="middle" transform="rotate(-90, 22, 251.0)" fill="#444" font-size="13">syscall count (log scale)</text>
<rect x="84.0" y="111.7" width="60.7" height="318.3" fill="#b5453b" rx="2"/>
<text x="114.3" y="105.7" text-anchor="middle" fill="#222" font-size="11" font-weight="600">216,061</text>
<rect x="148.7" y="427.0" width="60.7" height="3.0" fill="#1f6db5" rx="2"/>
<text x="179.0" y="421.0" text-anchor="middle" fill="#222" font-size="11" font-weight="600">1</text>
<text x="146.7" y="448.0" text-anchor="middle" fill="#222" font-size="13" font-weight="600">newfstatat</text>
<text x="146.7" y="464.0" text-anchor="middle" fill="#555" font-size="11">216061.0x fewer</text>
<rect x="233.3" y="114.4" width="60.7" height="315.6" fill="#b5453b" rx="2"/>
<text x="263.7" y="108.4" text-anchor="middle" fill="#222" font-size="11" font-weight="600">194,731</text>
<rect x="298.0" y="144.4" width="60.7" height="285.6" fill="#1f6db5" rx="2"/>
<text x="328.3" y="138.4" text-anchor="middle" fill="#222" font-size="11" font-weight="600">61,203</text>
<text x="296.0" y="448.0" text-anchor="middle" fill="#222" font-size="13" font-weight="600">read</text>
<text x="296.0" y="464.0" text-anchor="middle" fill="#555" font-size="11">3.2x fewer</text>
<rect x="382.7" y="128.6" width="60.7" height="301.4" fill="#b5453b" rx="2"/>
<text x="413.0" y="122.6" text-anchor="middle" fill="#222" font-size="11" font-weight="600">112,511</text>
<rect x="447.3" y="162.9" width="60.7" height="267.1" fill="#1f6db5" rx="2"/>
<text x="477.7" y="156.9" text-anchor="middle" fill="#222" font-size="11" font-weight="600">29,903</text>
<text x="445.3" y="448.0" text-anchor="middle" fill="#222" font-size="13" font-weight="600">nanosleep</text>
<text x="445.3" y="464.0" text-anchor="middle" fill="#555" font-size="11">3.8x fewer</text>
<rect x="532.0" y="160.8" width="60.7" height="269.2" fill="#b5453b" rx="2"/>
<text x="562.3" y="154.8" text-anchor="middle" fill="#222" font-size="11" font-weight="600">32,462</text>
<rect x="596.7" y="160.8" width="60.7" height="269.2" fill="#1f6db5" rx="2"/>
<text x="627.0" y="154.8" text-anchor="middle" fill="#222" font-size="11" font-weight="600">32,462</text>
<text x="594.7" y="448.0" text-anchor="middle" fill="#222" font-size="13" font-weight="600">openat</text>
<text x="594.7" y="464.0" text-anchor="middle" fill="#555" font-size="11">unchanged</text>
<rect x="681.3" y="160.8" width="60.7" height="269.2" fill="#b5453b" rx="2"/>
<text x="711.7" y="154.8" text-anchor="middle" fill="#222" font-size="11" font-weight="600">32,462</text>
<rect x="746.0" y="160.8" width="60.7" height="269.2" fill="#1f6db5" rx="2"/>
<text x="776.3" y="154.8" text-anchor="middle" fill="#222" font-size="11" font-weight="600">32,462</text>
<text x="744.0" y="448.0" text-anchor="middle" fill="#222" font-size="13" font-weight="600">close</text>
<text x="744.0" y="464.0" text-anchor="middle" fill="#555" font-size="11">unchanged</text>
<rect x="830.7" y="170.4" width="60.7" height="259.6" fill="#b5453b" rx="2"/>
<text x="861.0" y="164.4" text-anchor="middle" fill="#222" font-size="11" font-weight="600">22,448</text>
<rect x="895.3" y="180.6" width="60.7" height="249.4" fill="#1f6db5" rx="2"/>
<text x="925.7" y="174.6" text-anchor="middle" fill="#222" font-size="11" font-weight="600">15,135</text>
<text x="893.3" y="448.0" text-anchor="middle" fill="#222" font-size="13" font-weight="600">futex</text>
<text x="893.3" y="464.0" text-anchor="middle" fill="#555" font-size="11">unchanged</text>
<rect x="84" y="504" width="14" height="14" fill="#b5453b" rx="2"/>
<text x="104" y="515" fill="#222" font-size="12">before (slow): 664,447 syscalls total</text>
<rect x="364" y="504" width="14" height="14" fill="#1f6db5" rx="2"/>
<text x="384" y="515" fill="#222" font-size="12">after (fast): 217,161 syscalls total</text>
<text x="956" y="528" text-anchor="end" fill="#777" font-size="11">strace 6.8 | Go 1.18 | Linux 6.6 (WSL2)</text>
</svg>